<svg width="190" height="30" viewBox="0 0 190 30" fill="none" xmlns="http://www.w3.org/2000/svg">
<g clip-path="url(#clip0)">
<path d="M10.568 6.35761C6.70471 6.35761 3.98793 7.15542 2.39276 8.72613C0.797586 10.2968 0 13.2886 0 17.6766V18.7238C0 23.0868 0.797586 26.0537 2.36783 27.6244C3.93808 29.1951 6.67978 29.9929 10.568 29.9929H11.3656C15.2289 29.9929 17.9457 29.1951 19.5159 27.6244C21.0862 26.0537 21.8838 23.0868 21.8838 18.7238V17.6766C21.8838 13.3136 21.0862 10.3467 19.5159 8.75106C17.9457 7.15542 15.2289 6.35761 11.3656 6.35761H10.568V6.35761ZM15.8271 17.6766V18.7238C15.8271 21.0674 15.5031 22.6381 14.855 23.411C14.207 24.2088 12.9608 24.6077 11.0914 24.6077H10.7923C8.923 24.6077 7.67677 24.2088 7.05365 23.4359C6.43054 22.663 6.10652 21.0923 6.10652 18.7238V17.6766C6.10652 15.3081 6.43054 13.7374 7.05365 12.9396C7.67677 12.1418 8.923 11.7429 10.7923 11.7429H11.0914C12.9608 11.7429 14.2319 12.1418 14.855 12.9396C15.5031 13.7374 15.8271 15.3081 15.8271 17.6766V17.6766ZM34.6701 11.7429C34.1716 11.7429 33.2743 11.8177 31.9533 11.9673C31.4548 12.0171 31.1308 12.1916 30.9563 12.441C30.7818 12.7152 30.6821 13.1391 30.6821 13.7125V28.0233C30.6821 28.522 30.5077 28.9458 30.1587 29.2699C29.8098 29.594 29.3861 29.7686 28.8876 29.7686H26.3951C25.8717 29.7686 25.448 29.594 25.099 29.2699C24.775 28.9209 24.6005 28.522 24.6005 28.0233V11.5185C24.6005 10.0724 24.8498 9.05024 25.3234 8.37708C25.7969 7.72885 26.6444 7.25515 27.8407 7.00583C30.0341 6.55706 32.3272 6.35761 34.695 6.35761C38.5334 6.35761 41.1754 7.08063 42.6459 8.50174C44.1165 9.92285 44.8642 12.6903 44.8642 16.804V28.0483C44.8642 28.5469 44.6898 28.9707 44.3657 29.2949C44.0417 29.619 43.618 29.7935 43.1195 29.7935H40.627C40.1036 29.7935 39.6799 29.619 39.331 29.2949C39.007 28.9458 38.8325 28.5469 38.8325 28.0483V17.0783C38.8325 14.984 38.5334 13.5629 37.9601 12.8399C37.3869 12.1169 36.2902 11.7678 34.7199 11.7678L34.6701 11.7429ZM58.2487 29.9929C54.3356 29.9929 51.5689 29.1951 49.9738 27.5746C48.3786 25.954 47.581 22.9622 47.581 18.5742V17.7016C47.581 13.3385 48.3786 10.3467 49.9488 8.75106C51.5191 7.13049 54.2359 6.33267 58.0992 6.33267H58.5478C62.3862 6.33267 65.0781 6.9809 66.6732 8.27735C68.2435 9.57381 69.0411 11.9673 69.0411 15.4577V16.5547C69.0411 17.8512 68.742 18.7487 68.1438 19.2972C67.5456 19.8457 66.6234 20.12 65.4021 20.12H54.4353C53.9118 20.12 53.6377 20.3942 53.6377 20.9178C53.6377 22.3887 53.9617 23.386 54.6347 23.9595C55.2827 24.5329 56.504 24.8071 58.2487 24.8071H58.8968C60.3424 24.8071 61.9376 24.6077 63.7321 24.2337C65.5267 23.8597 66.4738 23.6603 66.6234 23.6603C67.6951 23.6603 68.2435 24.2088 68.2435 25.3307V27.0011C68.2435 27.6743 68.0939 28.148 67.7948 28.4472C67.4957 28.7464 67.0222 28.9707 66.3741 29.1453C64.0063 29.6938 61.5138 29.968 58.9217 29.968H58.2736L58.2487 29.9929ZM53.6875 15.3829C53.6875 15.6821 53.7374 15.8816 53.8371 15.9813C53.9368 16.081 54.1362 16.1309 54.4353 16.1309H62.2865C62.8099 16.1309 63.0841 15.8816 63.0841 15.3829C63.0841 13.7125 62.8099 12.6155 62.2366 12.0421C61.6634 11.4936 60.467 11.2193 58.6724 11.2193H58.0244C56.3794 11.2193 55.2578 11.5185 54.6347 12.1169C54.0115 12.7152 53.7124 13.8122 53.7124 15.3829H53.6875ZM72.1068 28.0233V1.79509C72.1068 1.27152 72.2812 0.847681 72.6053 0.498636C72.9293 0.174523 73.353 0 73.8515 0H76.344C76.8674 0 77.2911 0.174523 77.64 0.498636C77.9641 0.822749 78.1385 1.27152 78.1385 1.79509V5.85897C78.1385 6.15815 78.2133 6.35761 78.3379 6.5072C78.4625 6.63186 78.6619 6.68172 78.9361 6.65679C80.3817 6.45733 81.4535 6.35761 82.2262 6.35761C86.0396 6.35761 88.6816 7.08063 90.1771 8.50174C91.6726 9.92285 92.4203 12.6903 92.4203 16.804V28.0483C92.4203 28.5469 92.2458 28.9707 91.9218 29.2949C91.5978 29.619 91.1492 29.7935 90.6257 29.7935H88.1333C87.6099 29.7935 87.1861 29.619 86.8372 29.2949C86.4883 28.9458 86.3387 28.5469 86.3387 28.0483V17.0284C86.3387 14.9341 86.0396 13.513 85.4663 12.8149C84.8931 12.1169 83.7964 11.7678 82.2262 11.7678C81.1046 11.7678 80.2073 11.8177 79.5094 11.9423C79.0109 11.9922 78.6869 12.1418 78.5124 12.3911C78.3379 12.6155 78.2382 13.0144 78.2382 13.538V28.0732C78.2382 28.5718 78.0638 28.9957 77.7397 29.3198C77.3908 29.6439 76.9671 29.8184 76.4437 29.8184H73.9013C73.4029 29.8184 72.9791 29.6439 72.6551 29.3198C72.3311 28.9957 72.1566 28.5718 72.1566 28.0732L72.1068 28.0233ZM105.73 6.35761C101.867 6.35761 99.1499 7.15542 97.5548 8.72613C95.9596 10.2968 95.162 13.2886 95.162 17.6766V18.7238C95.162 23.0868 95.9596 26.0537 97.5298 27.6244C99.1001 29.1951 101.842 29.9929 105.73 29.9929H106.528C110.391 29.9929 113.108 29.1951 114.678 27.6244C116.248 26.0537 117.046 23.0868 117.046 18.7238V17.6766C117.046 13.3136 116.248 10.3467 114.678 8.75106C113.108 7.15542 110.391 6.35761 106.528 6.35761H105.73V6.35761ZM110.989 17.6766V18.7238C110.989 21.0674 110.665 22.6381 110.017 23.411C109.369 24.2088 108.123 24.6077 106.253 24.6077H105.954C104.085 24.6077 102.839 24.2088 102.216 23.4359C101.593 22.663 101.269 21.0923 101.269 18.7238V17.6766C101.269 15.3081 101.593 13.7374 102.216 12.9396C102.839 12.1418 104.085 11.7429 105.954 11.7429H106.253C108.123 11.7429 109.394 12.1418 110.017 12.9396C110.665 13.7374 110.989 15.3081 110.989 17.6766V17.6766ZM132.998 22.6879C132.998 22.0148 132.698 21.5411 132.075 21.2917C131.452 21.0175 130.081 20.6934 127.913 20.2945C124.498 19.6712 122.23 18.8983 121.158 17.9758C120.087 17.0284 119.538 15.5076 119.538 13.3634C119.538 10.9451 120.286 9.1749 121.757 8.05297C123.227 6.93104 125.62 6.38254 128.885 6.38254C132.025 6.38254 134.568 6.68172 136.512 7.30501C137.16 7.50447 137.609 7.75379 137.883 8.0779C138.157 8.37708 138.282 8.87572 138.282 9.54888V11.344C138.282 11.8675 138.132 12.2914 137.833 12.6155C137.534 12.9396 137.11 13.0892 136.587 13.0892C136.288 13.0892 135.315 12.8399 133.646 12.3662C131.976 11.8925 130.405 11.6431 128.96 11.6431C127.713 11.6431 126.841 11.7678 126.368 12.0421C125.894 12.3163 125.67 12.7651 125.67 13.4382C125.67 13.9618 125.894 14.3607 126.318 14.635C126.766 14.9092 127.713 15.1835 129.209 15.5076C133.297 16.2805 135.964 17.0783 137.21 17.9758C138.456 18.8484 139.079 20.3443 139.079 22.4635C139.079 25.0565 138.282 26.9762 136.711 28.2228C135.141 29.4444 132.474 30.0677 128.735 30.0677C125.769 30.0677 123.252 29.7935 121.158 29.245C120.485 29.0705 120.012 28.8212 119.763 28.497C119.488 28.1729 119.364 27.6743 119.364 26.9513V25.1562C119.364 24.6575 119.513 24.2337 119.837 23.9096C120.161 23.5855 120.585 23.411 121.108 23.411C121.408 23.411 122.454 23.6603 124.249 24.134C126.044 24.6077 127.689 24.857 129.184 24.857C130.68 24.857 131.701 24.6825 132.225 24.3584C132.773 24.0342 133.047 23.4857 133.047 22.7627L132.998 22.6879ZM152.464 30.0179H152.164C149.074 30.0179 146.88 29.245 145.584 27.7242C144.288 26.1784 143.665 23.3112 143.665 19.0978V12.79C143.665 12.2664 143.416 11.9922 142.917 11.9922H142.294C141.771 11.9922 141.347 11.8426 141.023 11.5185C140.699 11.1944 140.55 10.7705 140.55 10.247V8.40201C140.55 7.87845 140.699 7.45461 141.023 7.10556C141.347 6.78145 141.771 6.60692 142.294 6.60692H142.917C143.416 6.60692 143.665 6.35761 143.665 5.85897V3.31593C143.665 2.79236 143.815 2.36852 144.139 2.01948C144.463 1.67043 144.911 1.52084 145.46 1.52084H147.927C148.451 1.52084 148.874 1.69536 149.223 2.01948C149.572 2.36852 149.722 2.79236 149.722 3.31593V5.85897C149.722 6.15815 149.772 6.35761 149.871 6.45733C149.971 6.55706 150.171 6.60692 150.47 6.60692H155.305C155.803 6.60692 156.227 6.78145 156.551 7.13049C156.875 7.47954 157.05 7.90338 157.05 8.40201V10.247C157.05 10.7705 156.875 11.1944 156.551 11.5185C156.227 11.8426 155.803 11.9922 155.305 11.9922H150.47C149.971 11.9922 149.722 12.2664 149.722 12.79V19.8956C149.722 21.6408 149.946 22.8874 150.345 23.5855C150.769 24.2836 151.492 24.6326 152.513 24.6326H152.638C153.336 24.6326 154.059 24.5329 154.757 24.3584C155.479 24.1589 155.953 24.0841 156.177 24.0841C157.224 24.0841 157.748 24.6575 157.748 25.8293V27.5496C157.748 28.6716 157.174 29.3697 156.028 29.6439C154.981 29.9181 153.785 30.0428 152.439 30.0428L152.464 30.0179Z" fill="#301B36"/>
<path fill-rule="evenodd" clip-rule="evenodd" d="M172.452 4.81526L187.357 12.4195C189.002 13.2671 189.999 15.0373 189.999 17.0817C189.999 19.1012 189.027 20.8464 187.407 21.719L185.438 20.7217L178.334 17.1066L168.813 12.2449C163.355 9.40271 166.919 2.0229 172.427 4.81526H172.452Z" fill="#FC0C50"/>
<path fill-rule="evenodd" clip-rule="evenodd" d="M172.452 29.3731L187.357 21.7689C189.002 20.9212 189.999 19.1511 189.999 17.1067C189.999 15.0872 189.027 13.342 187.407 12.4694L185.438 13.4666L178.334 17.0817L168.813 21.9434C163.355 24.7857 166.919 32.1655 172.427 29.3731H172.452Z" fill="#B3003C"/>
<path fill-rule="evenodd" clip-rule="evenodd" d="M187.433 21.744L187.483 21.7191H187.508L187.558 21.6941H187.583L187.632 21.6692H187.657L187.732 21.6193L187.782 21.5695L187.857 21.5196L187.931 21.4697L188.006 21.4199L188.081 21.37L188.156 21.3202L188.231 21.2703L188.305 21.2204L188.38 21.1706L188.43 21.1207L188.48 21.0708L188.53 21.021L188.58 20.9711L188.629 20.9212L188.679 20.8714L188.729 20.8215L188.779 20.7717V20.7467L188.829 20.6969V20.6719L188.879 20.6221V20.5971L188.928 20.5473V20.5223L188.953 20.4725V20.4475L188.978 20.3977L189.003 20.3727L189.028 20.3229L189.053 20.298L189.078 20.2481L189.103 20.2232L189.128 20.1733L189.153 20.1484L189.178 20.0985L189.228 20.0237L189.252 19.9988L189.277 19.9489L189.302 19.924L189.327 19.8741L189.352 19.8492L189.377 19.7993L189.402 19.7245L189.427 19.6996L189.452 19.6497L189.477 19.5999L189.502 19.55L189.527 19.4752L189.552 19.4253L189.576 19.3755L189.601 19.3256L189.626 19.2757L189.676 19.1012L189.701 19.0514L189.726 19.0264L189.751 18.9766V18.9516L189.776 18.9018V18.8768L189.801 18.827V18.802L189.826 18.7522V18.7272L189.851 18.6774V18.6525L189.876 18.6026V18.5777L189.901 18.5029V18.4779L189.925 18.4031V18.3782L189.95 18.3034V18.2785V18.2037V18.1787V18.104V18.079V18.0042V17.9793V17.9045V17.8796V17.8048V17.73V17.6552V17.5804V17.4807V17.3809V17.2812V17.1815V17.0817V16.982V16.8823V16.7826V16.6828V16.608V16.5332V16.4585V16.3837V16.3089V16.2839V16.2091V16.1842L189.925 16.1094V16.0845L189.901 16.0097V15.9847L189.876 15.91V15.885L189.851 15.8102V15.7853L189.826 15.7105V15.6856L189.801 15.6108L189.776 15.536V15.511L189.751 15.4612V15.4362L189.726 15.3864V15.3615L189.701 15.3116V15.2867L189.676 15.2368V15.2119L189.651 15.162V15.1371L189.626 15.0872L189.601 15.0124V14.9875L189.576 14.9376L189.552 14.9127L189.527 14.8628L189.502 14.8379L189.477 14.788L189.452 14.7631L189.427 14.7132L189.377 14.6384L189.352 14.6135L189.327 14.5636L189.302 14.5387L189.277 14.4888L189.252 14.4639L189.228 14.414L189.203 14.3642L189.178 14.3392L189.153 14.2894L189.128 14.2645L189.078 14.1897L189.053 14.1398L189.028 14.1149L189.003 14.065L188.978 14.0401L188.928 13.9653L188.904 13.9154L188.879 13.8905L188.854 13.8406L188.829 13.8157L188.779 13.7658L188.754 13.716L188.729 13.691C188.654 13.6162 188.579 13.5165 188.505 13.4417L188.455 13.3918L188.43 13.3669L188.38 13.317L188.33 13.2672L188.305 13.2423C188.255 13.1924 188.181 13.1425 188.131 13.0927L188.081 13.0428H188.056L188.006 12.9929C187.931 12.9181 187.832 12.8683 187.732 12.7935L187.657 12.7436L187.583 12.6938L187.508 12.6439L187.358 12.5691L178.286 17.2064L185.389 20.8215L187.358 21.8188L187.433 21.744Z" fill="#CC0044"/>
<path fill-rule="evenodd" clip-rule="evenodd" d="M187.433 21.744L184.417 23.2648L175.594 18.5029L178.335 17.1067L187.433 21.744Z" fill="#8A002E"/>
</g>
<defs>
<clipPath id="clip0">
<rect width="190" height="30" fill="white"/>
</clipPath>
</defs>
</svg>
