<?xml version="1.0" encoding="UTF-8"?>
<!DOCTYPE svg PUBLIC "-//W3C//DTD SVG 1.0//EN" "http://www.w3.org/TR/2001/REC-SVG-20010904/DTD/svg10.dtd">
<!-- Creator: CorelDRAW 2018 (64-Bit) -->
<svg xmlns="http://www.w3.org/2000/svg" xml:space="preserve" width="100px" height="101px" version="1.0" style="shape-rendering:geometricPrecision; text-rendering:geometricPrecision; image-rendering:optimizeQuality; fill-rule:evenodd; clip-rule:evenodd" viewBox="0 0 13.005 13.061" xmlns:xlink="http://www.w3.org/1999/xlink">
 <defs>
  <style type="text/css">
   <![CDATA[
    .str0 {stroke:#EB333D;stroke-width:0.028;stroke-miterlimit:220.369}
    .fil0 {fill:#ED3237}
   ]]>
  </style>
 </defs>
 <g id="Слой_x0020_1">
  <metadata id="CorelCorpID_0Corel-Layer"/>
  <g id="_2604775943984">
   <g id="Layer_2">
    <g id="Layer_3">
     <polygon class="fil0 str0" points="10.57,12.485 0.575,12.485 0.575,2.49 5.573,2.49 5.573,1.929 0.014,1.929 0.014,13.047 11.132,13.047 11.132,6.814 10.57,6.814 "/>
     <path class="fil0 str0" d="M3.233 7.694l-0.393 2.452 2.452 -0.393 0.243 -0.263 0 0 7.45 -7.43 -2.059 -2.04 -7.431 7.43 -0.262 0.244zm0.506 0.393l1.141 1.16 -1.385 0.225 0.244 -1.385zm8.441 -6.027l-0.73 0.749 -1.235 -1.254 0.748 -0.73 1.217 1.235zm-2.377 -0.112l1.254 1.254 -5.727 5.708 -1.236 -1.254 5.709 -5.708z"/>
    </g>
   </g>
  </g>
 </g>
</svg>